PathFileType	4	(X/Y/Z)	C:\Users\WrightLab\Desktop\Jo\P1.2Trial5.trc
DataRate	CameraRate	NumFrames	NumMarkers	Units	OrigDataRate	OrigDataStartFrame	OrigNumFrames
100.00	100.00	       13	19	mm	100.00	328	       872
Frame#	Time	Headset_Front			Headset_Back			Headset_Left			Headset_Right			Left_Shoulder			Right_Shoulder			Sternum			C7			Left Elbow			Right Elbow			Left Wrist			Right Wrist			Left ASIS			Right ASIS			S2			Left Knee			Right Knee			Left Ankle			Right Ankle			
		X1	Y1	Z1	X2	Y2	Z2	X3	Y3	Z3	X4	Y4	Z4	X5	Y5	Z5	X6	Y6	Z6	X7	Y7	Z7	X8	Y8	Z8	X9	Y9	Z9	X10	Y10	Z10	X11	Y11	Z11	X12	Y12	Z12	X13	Y13	Z13	X14	Y14	Z14	X15	Y15	Z15	X16	Y16	Z16	X17	Y17	Z17	X18	Y18	Z18	X19	Y19	Z19	

328	3.270	-825.42957	1327.52869	1067.04187	-852.88806	1524.38916	1306.05176	-951.89355	1440.70276	1195.64026	-900.92883	1163.47534	1223.68835	-1081.39856	1271.45923	1355.94373	-851.37714	1338.85278	1418.18335							-1158.99231	1006.45056	1454.90637	-588.91187	998.78406	1357.13782	-1038.95459	877.34857	1301.50549	-564.36725	747.62573	1275.61011	-864.46454	955.63013	1543.90698	-765.60529	839.17206	1255.86499				-1078.25073	466.06088	1307.40674	-706.48395	433.55917	1304.90991	-1102.33508	113.20721	1363.92981	-593.90204	176.88914	1517.85535	
329	3.280	-830.15826	1331.79114	1063.52808	-860.60669	1525.46057	1304.75525	-958.08313	1442.43225	1192.66504	-906.23871	1164.24561	1219.41626	-1087.72192	1271.68518	1350.60950	-857.95984	1339.67981	1414.45959							-1166.51587	1006.75415	1448.50842	-594.68579	1000.83569	1354.03235	-1044.85803	877.65472	1295.55481	-570.84607	748.57208	1273.30200	-869.99585	955.37262	1539.20642	-770.92511	840.14282	1253.84424				-1081.78455	465.43747	1304.62781	-713.41937	433.82919	1295.33105	-1102.32507	112.35173	1363.70935	-603.54553	180.14163	1512.32166	
330	3.290	-911.32288	1165.05676	1215.20044	-867.52472	1526.17798	1303.40784	-964.18286	1444.11938	1189.85486				-1093.24182	1271.67932	1345.47778	-863.66913	1340.01953	1410.81409							-1173.43384	1006.75751	1441.99963	-600.37988	1002.92773	1350.49805				-577.21649	750.14917	1271.48706	-875.70026	955.85516	1533.99683	-775.67145	841.58569	1249.30530				-1084.76270	464.35876	1302.70422	-720.61023	434.02496	1287.75818	-1102.40039	111.73353	1363.18005	-611.27527	184.90164	1509.13000	
331	3.300	-916.12384	1165.97827	1211.04504	-874.36322	1527.12964	1302.02563	-969.91565	1445.55908	1187.09827				-1098.98999	1271.94312	1340.71545	-870.02325	1340.75879	1407.41174							-1180.26917	1006.53052	1435.41357	-605.37585	1004.54834	1346.16296				-583.62219	751.04822	1267.81677	-879.13940	956.13574	1530.63232	-780.13025	842.17035	1246.50757				-1087.65393	463.28677	1299.97388	-727.28784	433.61023	1279.61267	-1102.26550	111.23732	1362.30383	-621.24683	189.15891	1506.12341	
332	3.310	-843.88556	1343.02625	1053.77380	-881.25458	1528.19678	1300.61560	-975.71777	1446.98645	1184.42773				-1104.60925	1272.22400	1336.19519	-876.03864	1341.27002	1404.09021							-1186.96790	1006.49512	1428.86853	-610.16248	1005.50677	1343.35742				-589.59363	752.42682	1265.05103	-884.62817	956.72754	1525.86511	-784.05316	844.10260	1239.71960	-1062.03296	877.78284	1277.49097	-1090.31458	462.33484	1298.15381	-733.28253	434.25641	1269.01343	-1102.15198	111.08651	1361.39600	-631.11572	194.93573	1503.88757	
333	3.320				-887.67181	1529.09717	1299.18298	-981.30621	1448.48047	1181.87000				-1109.84937	1272.28101	1331.88794	-881.50763	1341.52429	1400.76611	-924.88489	1168.07581	1202.82788							-615.05359	1007.26636	1338.96826				-594.47266	753.83026	1261.69348	-889.38263	956.55994	1520.71387	-788.25574	843.69183	1240.16724	-1067.35718	877.99768	1271.28088	-1092.40320	460.95456	1295.77588	-739.73419	434.91953	1260.90820	-1101.76721	110.82054	1360.20581	-642.49139	198.37558	1499.75244	
334	3.330	-852.45691	1349.59570	1047.85010	-893.93701	1530.11328	1297.71655	-986.61407	1449.93262	1179.32837				-1114.78748	1272.19702	1327.70032	-887.09692	1341.92542	1397.62622	-928.93378	1169.17578	1198.78638							-619.21716	1008.76392	1335.02185				-599.11926	755.07251	1258.85510	-894.27496	956.37457	1516.46118	-791.66980	845.55981	1234.37793	-1071.66650	878.68341	1264.87170	-1094.23682	459.61053	1293.70825	-745.70319	436.39642	1253.14478	-1101.75317	110.71444	1359.32483	-651.92371	202.80647	1496.24854	
335	3.340				-900.31110	1531.18909	1296.24158	-991.82257	1451.30005	1176.73999				-1119.61987	1271.92969	1323.54443	-892.58881	1342.26489	1394.44092	-932.81958	1170.26221	1194.78442							-623.35278	1009.87903	1331.82007				-604.16833	757.61169	1254.39612	-899.61713	956.73907	1512.27795	-794.69708	847.97540	1225.29504	-1076.40662	879.16400	1258.71228	-1096.10120	458.93414	1291.00610	-751.38519	436.97601	1245.66504	-1101.64563	110.45107	1358.27795	-661.41199	206.47070	1491.19153	
336	3.350	-772.31512	1409.30005	1153.38000	-905.99341	1531.90808	1294.67786	-996.77802	1452.47485	1174.11694				-1124.53076	1271.83752	1319.51270	-898.04932	1342.53809	1391.32080	-936.50177	1171.38489	1190.82715							-626.81866	1011.81683	1326.78809				-608.22620	759.08685	1249.52698	-903.63898	955.92413	1507.99133	-798.31696	848.86847	1224.29297	-1080.49927	878.89404	1252.55457	-1097.26367	457.72992	1288.73804	-756.78784	438.64075	1238.22827	-1101.69153	110.44852	1357.74524	-670.77069	211.55042	1488.40137	
337	3.360	-777.05109	1411.44507	1151.63623	-911.48553	1532.56189	1293.02844	-1001.41168	1453.63416	1171.50781				-1129.41406	1271.86829	1315.45850	-903.42163	1342.87280	1388.29163	-939.98566	1172.48645	1186.88904							-631.45337	1012.98132	1324.32446				-611.79419	760.38721	1244.97791	-908.53802	956.08594	1504.38879	-800.97424	849.44843	1222.13794	-1086.94153	877.09387	1250.38416	-1098.62427	457.34735	1284.69373	-761.84888	440.55115	1229.79712	-1101.64258	110.42107	1356.92920	-681.05487	214.64590	1484.25415	
338	3.370	-781.37103	1414.05579	1148.67957	-916.92029	1533.27014	1291.32446	-1005.88599	1454.73547	1168.72827				-1134.07324	1271.57715	1311.26965	-908.67596	1343.11768	1385.16357	-943.35724	1173.47656	1183.07874							-635.31085	1014.44360	1320.82141				-615.19409	762.26740	1240.26721	-912.81689	955.87097	1500.19507	-803.45959	850.79285	1217.50989	-1088.21606	878.29248	1240.75391				-767.39355	441.50507	1223.02881	-1101.71741	110.42232	1356.34497	-693.66510	216.09613	1476.54150	
339	3.380	-785.49878	1415.71277	1147.78357	-922.42480	1534.04700	1289.54785	-1010.19147	1455.85962	1165.92493				-1138.53564	1271.27393	1306.94336	-913.96381	1343.52600	1382.26819	-946.58026	1174.43933	1179.25000							-639.11853	1015.69293	1318.53662				-618.52277	763.71106	1236.27319	-917.10876	955.92700	1495.92725	-805.77673	852.33386	1212.74194	-1094.36768	877.57153	1238.82239				-772.48560	445.36844	1215.14038	-1102.00867	110.55319	1356.03906	-704.29559	217.73605	1471.69421	
340	3.390	-789.31226	1417.70276	1145.62109	-927.54901	1534.67285	1287.53735	-1014.23456	1456.92932	1162.97302				-1142.97021	1270.97913	1302.55542	-918.99023	1343.72131	1379.24805	-949.63489	1175.36707	1175.48840							-642.42169	1017.14124	1316.34814				-621.59631	765.13538	1231.28516	-920.83875	955.51465	1491.58057	-807.75507	853.54083	1210.09534	-1097.28967	877.41022	1232.56653				-776.78912	446.25906	1209.44885	-1102.36157	110.57053	1355.70215	-715.50043	218.74730	1464.54248	
